REM DIRINDEX 1\2,1\3,1\4,1\5
REM DIRNAME folder01,folder02,folder03,folder04,folder05
TITLE ""
FILE "P1Q_t_1003-1012.mp3" MP3
  TRACK 01 AUDIO
    TITLE "3:cjc005_3914"
    INDEX 01 00:00:00
  TRACK 02 AUDIO
    TITLE "0:"
    INDEX 01 00:00:68
  TRACK 03 AUDIO
    TITLE "4:cjc005_3915"
    INDEX 01 00:01:19
  TRACK 04 AUDIO
    TITLE "0:"
    INDEX 01 00:03:08
  TRACK 05 AUDIO
    TITLE "5:cjc005_3916"
    INDEX 01 00:03:29
  TRACK 06 AUDIO
    TITLE "0:"
    INDEX 01 00:07:21
  TRACK 07 AUDIO
    TITLE "3:cjc005_3917"
    INDEX 01 00:07:72
  TRACK 08 AUDIO
    TITLE "0:"
    INDEX 01 00:09:14
  TRACK 09 AUDIO
    TITLE "4:cjc005_3918"
    INDEX 01 00:09:44
  TRACK 10 AUDIO
    TITLE "0:"
    INDEX 01 00:10:68
  TRACK 11 AUDIO
    TITLE "5:cjc005_3919"
    INDEX 01 00:11:19
  TRACK 12 AUDIO
    TITLE "0:"
    INDEX 01 00:14:35
  TRACK 13 AUDIO
    TITLE "3:cjc005_3920"
    INDEX 01 00:15:19
  TRACK 14 AUDIO
    TITLE "0:"
    INDEX 01 00:16:20
  TRACK 15 AUDIO
    TITLE "4:cjc005_3921"
    INDEX 01 00:16:57
  TRACK 16 AUDIO
    TITLE "0:"
    INDEX 01 00:17:74
  TRACK 17 AUDIO
    TITLE "5:cjc005_3922"
    INDEX 01 00:18:23
  TRACK 18 AUDIO
    TITLE "0:"
    INDEX 01 00:21:47
  TRACK 19 AUDIO
    TITLE "3:cjc005_3923"
    INDEX 01 00:22:27
  TRACK 20 AUDIO
    TITLE "0:"
    INDEX 01 00:23:32
  TRACK 21 AUDIO
    TITLE "4:cjc005_3924"
    INDEX 01 00:23:57
  TRACK 22 AUDIO
    TITLE "0:"
    INDEX 01 00:25:05
  TRACK 23 AUDIO
    TITLE "5:cjc005_3925"
    INDEX 01 00:25:25
  TRACK 24 AUDIO
    TITLE "0:"
    INDEX 01 00:29:11
  TRACK 25 AUDIO
    TITLE "3:cjc005_3926"
    INDEX 01 00:29:64
  TRACK 26 AUDIO
    TITLE "0:"
    INDEX 01 00:31:14
  TRACK 27 AUDIO
    TITLE "4:cjc005_3927"
    INDEX 01 00:31:49
  TRACK 28 AUDIO
    TITLE "0:"
    INDEX 01 00:32:74
  TRACK 29 AUDIO
    TITLE "5:cjc005_3928"
    INDEX 01 00:33:19
  TRACK 30 AUDIO
    TITLE "0:"
    INDEX 01 00:38:00
  TRACK 31 AUDIO
    TITLE "3:cjc005_3929"
    INDEX 01 00:38:49
  TRACK 32 AUDIO
    TITLE "0:"
    INDEX 01 00:39:72
  TRACK 33 AUDIO
    TITLE "4:cjc005_3930"
    INDEX 01 00:40:24
  TRACK 34 AUDIO
    TITLE "0:"
    INDEX 01 00:41:42
  TRACK 35 AUDIO
    TITLE "5:cjc005_3931"
    INDEX 01 00:41:61
  TRACK 36 AUDIO
    TITLE "0:"
    INDEX 01 00:46:62
  TRACK 37 AUDIO
    TITLE "3:cjc005_3932"
    INDEX 01 00:47:48
  TRACK 38 AUDIO
    TITLE "0:"
    INDEX 01 00:48:65
  TRACK 39 AUDIO
    TITLE "4:cjc005_3933"
    INDEX 01 00:49:14
  TRACK 40 AUDIO
    TITLE "0:"
    INDEX 01 00:50:35
  TRACK 41 AUDIO
    TITLE "5:cjc005_3934"
    INDEX 01 00:50:60
  TRACK 42 AUDIO
    TITLE "0:"
    INDEX 01 00:54:68
  TRACK 43 AUDIO
    TITLE "3:cjc005_3935"
    INDEX 01 00:55:38
  TRACK 44 AUDIO
    TITLE "0:"
    INDEX 01 00:56:72
  TRACK 45 AUDIO
    TITLE "4:cjc005_3936"
    INDEX 01 00:57:33
  TRACK 46 AUDIO
    TITLE "0:"
    INDEX 01 00:59:53
  TRACK 47 AUDIO
    TITLE "5:cjc005_3937"
    INDEX 01 01:00:06
  TRACK 48 AUDIO
    TITLE "0:"
    INDEX 01 01:03:59
  TRACK 49 AUDIO
    TITLE "3:cjc005_3938"
    INDEX 01 01:04:41
  TRACK 50 AUDIO
    TITLE "0:"
    INDEX 01 01:05:60
  TRACK 51 AUDIO
    TITLE "4:cjc005_3939"
    INDEX 01 01:06:12
  TRACK 52 AUDIO
    TITLE "0:"
    INDEX 01 01:07:23
  TRACK 53 AUDIO
    TITLE "5:cjc005_3940"
    INDEX 01 01:07:47
  TRACK 54 AUDIO
    TITLE "0:"
    INDEX 01 01:12:05
  TRACK 55 AUDIO
    TITLE "3:cjc005_3941"
    INDEX 01 01:12:68
  TRACK 56 AUDIO
    TITLE "0:"
    INDEX 01 01:14:21
  TRACK 57 AUDIO
    TITLE "4:cjc005_3942"
    INDEX 01 01:14:43
  TRACK 58 AUDIO
    TITLE "0:"
    INDEX 01 01:15:74
  TRACK 59 AUDIO
    TITLE "5:cjc005_3943"
    INDEX 01 01:16:20
  TRACK 60 AUDIO
    TITLE "0:"
    INDEX 01 01:18:74
